SplineFontDB: 3.0
FontName: DSM-Endurance
FullName: DSM Endurance
FamilyName: DSM-Endurance
Weight: Regular
Copyright: Copyright (c) 2017, GlitchyPSI
UComments: "2017-12-25: Created with FontForge (http://fontforge.org)"
Version: 0.0.1b
ItalicAngle: 1.7
UnderlinePosition: -100
UnderlineWidth: 50
Ascent: 800
Descent: 200
InvalidEm: 0
LayerCount: 2
Layer: 0 0 "Back" 1
Layer: 1 0 "Fore" 0
XUID: [1021 680 -151454717 4954]
StyleMap: 0x0000
FSType: 0
OS2Version: 0
OS2_WeightWidthSlopeOnly: 0
OS2_UseTypoMetrics: 1
CreationTime: 1514218732
ModificationTime: 1514224257
OS2TypoAscent: 0
OS2TypoAOffset: 1
OS2TypoDescent: 0
OS2TypoDOffset: 1
OS2TypoLinegap: 90
OS2WinAscent: 0
OS2WinAOffset: 1
OS2WinDescent: 0
OS2WinDOffset: 1
HheadAscent: 0
HheadAOffset: 1
HheadDescent: 0
HheadDOffset: 1
MarkAttachClasses: 1
DEI: 91125
Encoding: ISO8859-1
UnicodeInterp: none
NameList: AGL For New Fonts
DisplaySize: -48
AntiAlias: 1
FitToEm: 0
WinInfo: 0 16 9
BeginPrivate: 1
BlueValues 15 [-20 0 800 800]
EndPrivate
BeginChars: 256 62

StartChar: A
Encoding: 65 65 0
Width: 763
VWidth: 0
Flags: W
HStem: 780 20G<311.511 410.739>
LayerCount: 2
Fore
SplineSet
305.69140625 537.874023438 m 1
 199.6484375 518.938476562 l 1
 150.413085938 207.3125 l 1
 357.50390625 220.581054688 l 1
 305.69140625 537.874023438 l 1
404.147460938 800 m 1
 733.639648438 -199.809570312 l 1
 440.129882812 -199.794921875 l 1
 379.543945312 57.732421875 l 1
 123.90625 50.1611328125 l 1
 25.44921875 -200 l 1
 -198 -199.795898438 l 1
 70.8916015625 728.05078125 l 1
 404.147460938 800 l 1
EndSplineSet
Validated: 524289
EndChar

StartChar: B
Encoding: 66 66 1
Width: 850
VWidth: 0
Flags: W
HStem: -200 154.424<187.158 463.228> -196.318 143.378<172.792 448.862> 167.648 251.269<224.257 408.081> 171.33 240.236<235.129 408.081> 780 20G<62.4971 782.113>
LayerCount: 2
Fore
SplineSet
408.081054688 171.330078125 m 1x98
 205.874023438 167.6484375 l 1
 172.791992188 -52.9404296875 l 1x68
 463.227539062 -45.576171875 l 1
 408.081054688 171.330078125 l 1x98
507.357421875 657.887695312 m 1
 242.639648438 632.155273438 l 1
 224.256835938 418.916992188 l 1x28
 452.209960938 411.56640625 l 1x18
 507.357421875 657.887695312 l 1
790.443359375 800 m 1
 606.619140625 358.651367188 l 1
 452.209960938 332.28515625 l 1
 599.26953125 285.122070312 l 1
 665.434570312 -200 l 1x88
 0 -196.318359375 l 1x48
 62.4970703125 792.649414062 l 1
 790.443359375 800 l 1
EndSplineSet
Validated: 524289
EndChar

StartChar: C
Encoding: 67 67 2
Width: 760
VWidth: 0
Flags: W
HStem: 583.854 229.538<484.602 619.106>
LayerCount: 2
Fore
SplineSet
0 795 m 18
 -0 798 702.784179688 813.392578125 702.784179688 813.392578125 c 2
 616.473632812 583.854492188 l 1
 223.948242188 604.690429688 l 1
 278.635742188 55.208984375 l 1
 617.185546875 36.9794921875 l 1
 700.512695312 -200 l 1
 54.6875 -197.392578125 l 1
 0 795 l 18
EndSplineSet
Validated: 524289
EndChar

StartChar: D
Encoding: 68 68 3
Width: 802
VWidth: 0
Flags: W
HStem: 780 20G<68.0586 638.586>
LayerCount: 2
Fore
SplineSet
243.45703125 627.220703125 m 1
 204.188476562 19.8935546875 l 1
 492.140625 226.702148438 l 1
 518.32421875 504.189453125 l 1
 243.45703125 627.220703125 l 1
623.03125 800 m 1
 732.977539062 658.629882812 l 1
 712.034179688 124.615234375 l 1
 376.954101562 -194.759765625 l 1
 0 -200 l 1
 68.05859375 789.520507812 l 1
 623.03125 800 l 1
EndSplineSet
Validated: 524289
EndChar

StartChar: E
Encoding: 69 69 4
Width: 817
VWidth: 0
Flags: W
HStem: -200 210.671<299.169 646.548> -196.359 214.368<282.401 629.78> 780 20G<0 748.38>
LayerCount: 2
Fore
SplineSet
754.596679688 800 m 1x60
 688.631835938 587.784179688 l 1
 286.098632812 628.09765625 l 1
 271.423828125 373.741210938 l 1
 636.377929688 428.671875 l 1
 577.821289062 192.319335938 l 1
 282.401367188 211.159179688 l 1
 282.401367188 18.0087890625 l 1x60
 646.547851562 10.6708984375 l 1
 727.130859375 -200 l 1xa0
 84.265625 -196.359375 l 1
 -0 796.302734375 l 1
 754.596679688 800 l 1x60
EndSplineSet
Validated: 524289
EndChar

StartChar: F
Encoding: 70 70 5
Width: 835
VWidth: 0
Flags: W
HStem: 566.842 233.158<243.529 405.523> 584.977 209.838<501.21 663.204>
VStem: 69.9463 173.583<-200 -99.9232>
LayerCount: 2
Fore
SplineSet
-0 800 m 1xa0
 772.012695312 794.814453125 l 1
 663.204101562 584.9765625 l 1x60
 243.529296875 566.841796875 l 1
 217.616210938 307.470703125 l 1
 536.26171875 360.100585938 l 1
 639.8984375 120.953125 l 1
 233.158203125 113.174804688 l 1
 243.529296875 -200 l 1
 69.9462890625 -200 l 1
 -0 800 l 1xa0
EndSplineSet
Validated: 524289
EndChar

StartChar: G
Encoding: 71 71 6
Width: 996
VWidth: 0
Flags: W
HStem: -200 170.213<435.405 648.39> -194.677 175.536<324.456 537.44> 608.509 191.491<223.402 369.132>
LayerCount: 2
Fore
SplineSet
-0 800 m 1x60
 786.69140625 800 l 1
 887.74609375 576.59765625 l 1
 223.40234375 608.508789062 l 1
 324.456054688 -19.140625 l 1x60
 648.389648438 -29.787109375 l 1
 722.856445312 204.26171875 l 1
 511.279296875 182.983398438 l 1
 442.12109375 353.196289062 l 1
 940.934570312 385.106445312 l 1
 839.879882812 -200 l 1xa0
 118.958984375 -194.676757812 l 1
 -0 800 l 1x60
EndSplineSet
Validated: 524289
EndChar

StartChar: H
Encoding: 72 72 7
Width: 898
VWidth: 0
Flags: W
HStem: 157.508 212.432<290.154 523.312> 780 20G<0 289.19>
VStem: 46.626 243.528<-200 -52.2024>
LayerCount: 2
Fore
SplineSet
290.154296875 800 m 1
 269.426757812 369.939453125 l 1
 533.668945312 369.939453125 l 1
 559.581054688 794.814453125 l 1
 844.55078125 794.814453125 l 1
 704.658203125 -200 l 1
 492.213867188 -200 l 1
 523.311523438 157.5078125 l 1
 290.154296875 157.5078125 l 1
 295.326171875 -200 l 1
 46.6259765625 -200 l 1
 -0 784.458007812 l 1
 290.154296875 800 l 1
EndSplineSet
Validated: 524289
EndChar

StartChar: I
Encoding: 73 73 8
Width: 388
VWidth: 0
Flags: W
HStem: 780 20G<0 344.32>
LayerCount: 2
Fore
SplineSet
0 800 m 1
 344.3203125 800 l 1
 216.114257812 -192.676757812 l 1
 29.29296875 -200 l 1
 0 800 l 1
EndSplineSet
Validated: 524289
EndChar

StartChar: J
Encoding: 74 74 9
Width: 895
VWidth: 0
Flags: W
HStem: -200 171.011<182.166 346.564> -200 156.132<367.206 531.604> 780 20G<520.449 829.59>
LayerCount: 2
Fore
SplineSet
832.712890625 800 m 1x60
 676.581054688 -200 l 1
 37.1748046875 -200 l 1x60
 0 212.647460938 l 1
 208.185546875 138.297851562 l 1
 182.166015625 -28.9892578125 l 1xa0
 531.604492188 -43.8681640625 l 1
 520.44921875 796.291015625 l 1
 832.712890625 800 l 1x60
EndSplineSet
Validated: 524289
EndChar

StartChar: K
Encoding: 75 75 10
Width: 832
VWidth: 0
Flags: W
HStem: 779.996 20G<1.13512 283.838 671.555 696.338>
LayerCount: 2
Fore
SplineSet
0 799.99609375 m 1
 283.837890625 781.9375 l 1
 216.751953125 376.810546875 l 1
 694.115234375 800 l 1
 722.5078125 544.540039062 l 1
 330.279296875 232.309570312 l 1
 766.366210938 -196.088867188 l 1
 482.52734375 -196.03515625 l 1
 245.130859375 98.1328125 l 1
 270.940429688 -200 l 1
 56.755859375 -200 l 1
 0 799.99609375 l 1
EndSplineSet
Validated: 524289
EndChar

StartChar: L
Encoding: 76 76 11
Width: 739
VWidth: 0
Flags: W
HStem: 780 20G<0.599312 264.712>
LayerCount: 2
Fore
SplineSet
0 800 m 1
 264.711914062 796.318359375 l 1
 210.07421875 -7.2919921875 l 1
 671.58984375 14.83984375 l 1
 583.034179688 -200 l 1
 29.5234375 -185.245117188 l 1
 0 800 l 1
EndSplineSet
Validated: 524289
EndChar

StartChar: M
Encoding: 77 77 12
Width: 982
VWidth: 0
Flags: W
HStem: 780 20G<1.80848 148.57>
LayerCount: 2
Fore
SplineSet
-0 800 m 1
 275.129882812 762.962890625 l 1
 444.444335938 445.500976562 l 1
 656.08984375 778.833984375 l 1
 915.349609375 797.352539062 l 1
 820.109375 -194.705078125 l 1
 624.333984375 -200 l 1
 671.9609375 408.463867188 l 1
 449.739257812 165.075195312 l 1
 248.682617188 397.887695312 l 1
 280.424804688 -194.705078125 l 1
 89.9453125 -194.705078125 l 1
 -0 800 l 1
EndSplineSet
Validated: 524289
EndChar

StartChar: N
Encoding: 78 78 13
Width: 841
VWidth: 0
Flags: W
HStem: 780 20G<64.633 243.835>
LayerCount: 2
Fore
SplineSet
65.9375 800 m 1
 243.834960938 796.345703125 l 1
 564.301757812 173.571289062 l 1
 452.5546875 796.530273438 l 1
 740.044921875 791.784179688 l 1
 740.044921875 -200 l 1
 536.368164062 -185.353515625 l 1
 235.704101562 393.75 l 1
 292 -198 l 5
 0.8408203125 -198 l 5
 65.9375 800 l 1
EndSplineSet
Validated: 524289
EndChar

StartChar: O
Encoding: 79 79 14
Width: 907
VWidth: 0
Flags: W
HStem: -200 241.924<225.101 473.477> 543.855 256.145<265.026 579.554> 543.855 245.787<181.11 552.561>
LayerCount: 2
Fore
SplineSet
181.110351562 543.85546875 m 1xa0
 225.100585938 41.923828125 l 1
 473.4765625 41.923828125 l 1
 579.553710938 543.85546875 l 1xc0
 181.110351562 543.85546875 l 1xa0
817.586914062 800 m 1
 646.819335938 -200 l 1
 41.400390625 -200 l 1
 0 789.642578125 l 1xa0
 817.586914062 800 l 1
EndSplineSet
Validated: 524289
EndChar

StartChar: P
Encoding: 80 80 15
Width: 913
VWidth: 0
Flags: W
HStem: 194.16 185.712<203.58 452.676> 205.111 174.761<342.941 477.13> 780 20G<0.586146 832.112>
LayerCount: 2
Fore
SplineSet
523.576171875 635.358398438 m 1x60
 190.6796875 591.481445312 l 1
 203.580078125 379.872070312 l 1xa0
 477.129882812 379.872070312 l 1
 523.576171875 635.358398438 l 1x60
0 800 m 1
 832.112304688 785.393554688 l 1
 594.888671875 205.111328125 l 1x60
 200.728515625 194.16015625 l 1
 273.720703125 -200 l 1
 29.2001953125 -196.344726562 l 1
 0 800 l 1
EndSplineSet
Validated: 524289
EndChar

StartChar: Q
Encoding: 81 81 16
Width: 967
VWidth: 0
Flags: W
HStem: -39.1807 20G<738.182 905.044> 598.89 186.342<185.085 376.875> 615.499 184.501<457.086 640.158>
LayerCount: 2
Back
SplineSet
640.158203125 615.499023438 m 1
 185.084960938 598.889648438 l 1
 228.40625 21.4013671875 l 1
 470.426757812 6.646484375 l 1
 378.17578125 191.147460938 l 1
 553.4453125 194.829101562 l 1
 577.173828125 8.4873046875 l 1
 640.158203125 615.499023438 l 1
868.951171875 800 m 1
 688.131835938 -45.0224609375 l 1
 909.532226562 -19.1806640625 l 1
 868.951171875 -200 l 1
 75.59765625 -196.303710938 l 1
 0 785.231445312 l 1
 868.951171875 800 l 1
EndSplineSet
Fore
SplineSet
640.158203125 615.499023438 m 1xa0
 185.084960938 598.889648438 l 1xc0
 228.40625 21.4013671875 l 1
 470.426757812 6.646484375 l 1
 378.17578125 191.147460938 l 1
 553.4453125 194.829101562 l 1
 577.173828125 8.4873046875 l 1
 640.158203125 615.499023438 l 1xa0
868.951171875 800 m 1xa0
 688.131835938 -45.0224609375 l 1
 909.532226562 -19.1806640625 l 1
 868.951171875 -200 l 1
 75.59765625 -196.303710938 l 1
 0 785.231445312 l 1xc0
 868.951171875 800 l 1xa0
EndSplineSet
Validated: 524289
EndChar

StartChar: R
Encoding: 82 82 17
Width: 895
VWidth: 0
Flags: W
HStem: 780 20G<1.31393 821.172>
VStem: 65.6963 164.234<-196.345 -93.4491>
LayerCount: 2
Fore
SplineSet
527 636 m 1
 207.350585938 608.484375 l 1
 225.415039062 327.196289062 l 1
 475.739257812 337.512695312 l 1
 527 636 l 1
-0 800 m 1
 821.171875 796.359375 l 1
 609.489257812 190.510742188 l 1
 374 162 l 1
 703.256835938 -198.1796875 l 1
 450.73046875 -192.704101562 l 1
 273.723632812 35.4072265625 l 1
 232.82421875 91.6904296875 l 1
 229.930664062 -196.344726562 l 1
 65.6962890625 -200 l 1
 -0 800 l 1
EndSplineSet
Validated: 524289
EndChar

StartChar: S
Encoding: 83 83 18
Width: 847
VWidth: 0
Flags: W
HStem: 780 20G<377.264 787.113>
LayerCount: 2
Fore
SplineSet
790.559570312 800 m 1
 751.216796875 571.692382812 l 1
 238.418945312 602.291992188 l 1
 263.786132812 396.962890625 l 1
 678.82421875 339.729492188 l 1
 621.364257812 -200 l 1
 27.529296875 -192.819335938 l 1
 0 24.6826171875 l 1
 447.174804688 -58.9990234375 l 1
 484.94140625 142.43359375 l 1
 93.1953125 248.440429688 l 1
 30.685546875 763.228515625 l 1
 790.559570312 800 l 1
EndSplineSet
Validated: 524289
EndChar

StartChar: T
Encoding: 84 84 19
Width: 1006
VWidth: 0
Flags: W
HStem: 574.085 224.07<169.035 363.309 517.432 834.986> 581.648 216.507<51.3809 192.728 709.745 860.548>
LayerCount: 2
Fore
SplineSet
0 800 m 1x80
 968.791992188 798.155273438 l 1
 860.547851562 581.6484375 l 1x40
 517.431640625 574.084960938 l 1
 568.80078125 -196.32421875 l 1
 315.598632812 -200 l 1
 363.30859375 574.3125 l 1
 51.380859375 585.32421875 l 1
 0 800 l 1x80
EndSplineSet
Validated: 524289
EndChar

StartChar: U
Encoding: 85 85 20
Width: 961
VWidth: 0
Flags: W
HStem: -194.76 238.985<194.611 548> 780 20G<0 267.657>
LayerCount: 2
Fore
SplineSet
269.642578125 800 m 1
 194.611328125 44.2255859375 l 1
 548 39 l 1
 583.776367188 794.759765625 l 1
 916.23828125 794.759765625 l 1
 649.216796875 -200 l 1
 26.1845703125 -194.759765625 l 1
 0 784.28125 l 1
 269.642578125 800 l 1
EndSplineSet
Validated: 524289
EndChar

StartChar: V
Encoding: 86 86 21
Width: 937
VWidth: 0
Flags: W
HStem: 780 20G<3.09297 247.418>
LayerCount: 2
Fore
SplineSet
0 800 m 1
 247.41796875 794.841796875 l 1
 296.397460938 24.2314453125 l 1
 347.938476562 24.2314453125 l 1
 577.317382812 789.697265625 l 1
 894.33203125 794.841796875 l 1
 448.44921875 -200 l 1
 154.6484375 -200 l 1
 0 800 l 1
EndSplineSet
Validated: 524289
EndChar

StartChar: W
Encoding: 87 87 22
Width: 1039
VWidth: 0
Flags: W
LayerCount: 2
Fore
SplineSet
1003.27441406 807.952148438 m 1
 765.032226562 -195.295898438 l 1
 628.555664062 -193.701171875 l 1
 481 73 l 1
 322 -200 l 1
 198.909179688 -200.463867188 l 1
 3.2744140625 797.02734375 l 1
 304.541015625 701.3984375 l 1
 331 206 l 1
 498.405273438 367.118164062 l 1
 649 190 l 1
 700 685 l 1
 1003.27441406 807.952148438 l 1
EndSplineSet
Validated: 524289
EndChar

StartChar: X
Encoding: 88 88 23
Width: 976
VWidth: 0
Flags: W
HStem: 779.999 20G<45.6035 310.085 608.269 904.723>
LayerCount: 2
Fore
SplineSet
41.955078125 799.999023438 m 2
 310.084960938 796.346679688 l 1
 460.197265625 420.959960938 l 1
 616.517578125 800 l 1
 904.72265625 800 l 1
 621.130859375 255.090820312 l 1
 926.7421875 -200 l 1
 658.994140625 -199.577148438 l 1
 451.495117188 129.383789062 l 1
 282.732421875 -200.293945312 l 1
 0 -200 l 1
 287.233398438 261.846679688 l 1
 287.233398438 261.846679688 49.251953125 770.814453125 41.955078125 799.999023438 c 2
EndSplineSet
Validated: 524289
EndChar

StartChar: Y
Encoding: 89 89 24
Width: 916
VWidth: 0
Flags: W
HStem: 780 20G<788.272 842.198>
LayerCount: 2
Fore
SplineSet
854.419921875 800 m 1
 472.796875 175.533203125 l 1
 538.17578125 -200 l 1
 305.147460938 -200 l 1
 325.5 180.081054688 l 1
 -0 790.74609375 l 1
 266.314453125 724.1640625 l 1
 404 393 l 1
 536.330078125 703.825195312 l 1
 854.419921875 800 l 1
EndSplineSet
Validated: 524289
EndChar

StartChar: Z
Encoding: 90 90 25
Width: 973
VWidth: 0
Flags: W
HStem: 780 20G<7.96467 943.295>
LayerCount: 2
Fore
SplineSet
-0 800 m 1
 943.294921875 789.682617188 l 1
 427.83984375 -37.6298828125 l 1
 783.505859375 68.0380859375 l 1
 932.991210938 -200 l 1
 5.1572265625 -200 l 1
 636.598632812 619.588867188 l 1
 115.98046875 508.762695312 l 1
 -0 800 l 1
EndSplineSet
Validated: 524289
EndChar

StartChar: a
Encoding: 97 97 26
Width: 682
VWidth: 0
Flags: W
HStem: -200 142.484<180.908 337.316>
LayerCount: 2
Fore
SplineSet
142.7265625 160.258789062 m 1
 180.908203125 -57.515625 l 1
 337.31640625 -63.95703125 l 1
 319.275390625 157.694335938 l 1
 142.7265625 160.258789062 l 1
409.213867188 326.448242188 m 1
 480.870117188 277.484375 l 1
 633.952148438 -200.450195312 l 1
 515.500976562 -200 l 1
 455.359375 -61.4921875 l 1
 462.646484375 -200 l 1
 68.9970703125 -200 l 1
 5.21875 292.057617188 l 1
 409.213867188 326.448242188 l 1
EndSplineSet
Validated: 524289
EndChar

StartChar: b
Encoding: 98 98 27
Width: 724
VWidth: 0
Flags: W
LayerCount: 2
Fore
SplineSet
393 170 m 1
 251 113 l 1
 171 -65 l 1
 455 -50 l 1
 393 170 l 1
404 797 m 2
 258 277 l 1
 546 317 l 1
 653 -199 l 1
 -0 -200 l 1
 191 766 l 1
 404 797 l 2
EndSplineSet
Validated: 1
EndChar

StartChar: c
Encoding: 99 99 28
Width: 502
VWidth: 0
Flags: W
HStem: 169.245 146.908<170.094 271.448> 171.826 134.025<170.094 399.484>
LayerCount: 2
Fore
SplineSet
-0 316.153320312 m 1x80
 399.484375 305.8515625 l 1
 448.44921875 171.826171875 l 1x40
 170.09375 169.245117188 l 1
 175.252929688 -73.7119140625 l 1
 430.407226562 -107.229492188 l 1
 389.166992188 -212.896484375 l 1
 61.84765625 -200 l 1
 -0 316.153320312 l 1x80
EndSplineSet
Validated: 524289
EndChar

StartChar: d
Encoding: 100 100 29
Width: 703
VWidth: 0
Flags: W
HStem: -205.159 111.159<309.424 455> -200 117.746<210.721 356.297>
LayerCount: 2
Fore
SplineSet
362.948242188 148.118164062 m 1x80
 176.752929688 93.0693359375 l 1
 210.720703125 -82.25390625 l 1x40
 455 -94 l 1
 362.948242188 148.118164062 l 1x80
235.86328125 791.627929688 m 1
 449.270507812 760.704101562 l 1
 639.984375 -205.159179688 l 1x80
 69 -200 l 1
 -2.1220703125 297.809570312 l 1
 382.25 271.6484375 l 1
 235.86328125 791.627929688 l 1
EndSplineSet
Validated: 524289
EndChar

StartChar: e
Encoding: 101 101 30
Width: 691
VWidth: 0
Flags: W
HStem: -202.577 136.239<187.321 506.35> -11.1338 21G<270.975 542.248>
LayerCount: 2
Fore
SplineSet
402.892578125 246.155273438 m 1
 220.126953125 254.984375 l 1
 189 116 l 1
 437.264648438 96.09375 l 1
 402.892578125 246.155273438 l 1
612.087890625 321.397460938 m 1
 537.778320312 -11.1337890625 l 1
 232.036132812 11.78515625 l 1
 187.321289062 -66.337890625 l 1
 549.056640625 -60.2353515625 l 1
 506.349609375 -204.606445312 l 1
 85.4140625 -202.577148438 l 1
 -0 386.078125 l 1
 612.087890625 321.397460938 l 1
EndSplineSet
Validated: 524289
EndChar

StartChar: f
Encoding: 102 102 31
Width: 490
VWidth: 0
Flags: W
VStem: 34.5176 121.523<-200 -25.7595>
LayerCount: 2
Fore
SplineSet
457.16015625 702.930664062 m 1
 380.103515625 509.749023438 l 1
 198.481445312 524.81640625 l 1
 192.703125 382.178710938 l 1
 338.765625 418.626953125 l 1
 384.784179688 265.545898438 l 1
 158.029296875 265.545898438 l 1
 156.041015625 -200 l 1
 34.517578125 -200 l 1
 -0 659.194335938 l 1
 457.16015625 702.930664062 l 1
EndSplineSet
Validated: 524289
EndChar

StartChar: g
Encoding: 103 103 32
Width: 775
VWidth: 0
Flags: W
HStem: -449.095 180.411<23.8682 490.356>
LayerCount: 2
Fore
SplineSet
412 208 m 1
 246 175 l 1
 206 -41 l 1
 430 -26 l 1
 412 208 l 1
601.181640625 377.315429688 m 1
 699.125 -449.094726562 l 1
 -53.4560546875 -449.094726562 l 1
 23.8681640625 -268.68359375 l 1
 490.356445312 -273.828125 l 1
 474.89453125 -179.393554688 l 1
 -3 -191 l 1
 131.025390625 303.833984375 l 1
 601.181640625 377.315429688 l 1
EndSplineSet
Validated: 524289
EndChar

StartChar: h
Encoding: 104 104 33
Width: 718
VWidth: 0
Flags: W
LayerCount: 2
Fore
SplineSet
149.487304688 794.827148438 m 1
 291.237304688 727.821289062 l 1
 223.966796875 188.467773438 l 1
 518.048828125 296.713867188 l 1
 646.900390625 -205.159179688 l 1
 481.966796875 -210.317382812 l 1
 414.944335938 60.2998046875 l 1
 208.504882812 -1.5478515625 l 1
 172.422851562 -210.317382812 l 1
 -0 -200 l 1
 149.487304688 794.827148438 l 1
EndSplineSet
Validated: 524289
EndChar

StartChar: i
Encoding: 105 105 34
Width: 256
VWidth: 0
Flags: W
HStem: 383.18 123.92<22.7471 207.318>
VStem: -0 229.18
LayerCount: 2
Fore
SplineSet
229.1796875 510.75 m 1
 207.318359375 379.529296875 l 1
 22.7470703125 383.1796875 l 1
 4.5244140625 507.099609375 l 1
 229.1796875 510.75 l 1
7.2880859375 299.344726562 m 1
 215.041992188 295.708007812 l 1
 127.569335938 -207.287109375 l 1
 -0 -200 l 1
 7.2880859375 299.344726562 l 1
EndSplineSet
Validated: 524289
EndChar

StartChar: j
Encoding: 106 106 35
Width: 649
VWidth: 0
Flags: W
LayerCount: 2
Fore
SplineSet
599.4453125 472.919921875 m 1
 563.36328125 307.293945312 l 1
 354.029296875 315.03125 l 1
 341.147460938 441.99609375 l 1
 599.4453125 472.919921875 l 1
340.204101562 253.170898438 m 1
 561.854492188 248.026367188 l 1
 432.987304688 -415.239257812 l 1
 43.8203125 -407.515625 l 1
 -0 -200 l 1
 146.907226562 -174.220703125 l 1
 162.369140625 -260.607421875 l 1
 324.7421875 -250.290039062 l 1
 340.204101562 253.170898438 l 1
EndSplineSet
Validated: 524289
EndChar

StartChar: k
Encoding: 107 107 36
Width: 499
VWidth: 0
Flags: W
LayerCount: 2
Fore
SplineSet
-0 416.907226562 m 2
 226.80859375 416.907226562 l 1
 182.989257812 99.8916015625 l 1
 347.9375 295.778320312 l 1
 432.987304688 159.172851562 l 1
 260.3125 12.2646484375 l 1
 440.721679688 -162.987304688 l 1
 278.352539062 -199.0703125 l 1
 167.526367188 -59.8994140625 l 1
 157.224609375 -181.028320312 l 2
 156.9140625 -184.685546875 51.8681640625 -200 51.8681640625 -200 c 1
 51.8681640625 -200 7.2275390625 414.946289062 -0 416.907226562 c 2
EndSplineSet
Validated: 524289
EndChar

StartChar: l
Encoding: 108 108 37
Width: 334
VWidth: 0
Flags: W
HStem: -202.58 151.376<152.755 244.51>
VStem: -0 276.465<-200 -170.953>
LayerCount: 2
Fore
SplineSet
46.3837890625 781.944335938 m 1
 237.803710938 779.37890625 l 1
 152.754882812 -56.3486328125 l 1
 242.9609375 -51.2041015625 l 1
 276.46484375 -202.580078125 l 1
 -0 -200 l 1
 46.3837890625 781.944335938 l 1
EndSplineSet
Validated: 524289
EndChar

StartChar: m
Encoding: 109 109 38
Width: 748
VWidth: 0
Flags: W
VStem: 59.2686 141.553<-200 -128.469>
LayerCount: 2
Fore
SplineSet
167.837890625 314.40625 m 1
 346.616210938 248.334960938 l 1
 494.03125 302.514648438 l 1
 631.467773438 261.203125 l 1
 699.346679688 -203.017578125 l 1
 562.91015625 -200.436523438 l 1
 504.981445312 123.584960938 l 1
 416.243164062 96.5224609375 l 1
 454.904296875 -195.912109375 l 1
 291.322265625 -195.912109375 l 1
 306.8828125 81.498046875 l 1
 205.82421875 116.297851562 l 1
 200.821289062 -200 l 1
 59.2685546875 -202.580078125 l 1
 94.068359375 165.853515625 l 1
 5.1435546875 165.990234375 l 1
 -0 279.25390625 l 1
 167.837890625 314.40625 l 1
EndSplineSet
Validated: 524289
EndChar

StartChar: n
Encoding: 110 110 39
Width: 538
VWidth: 0
Flags: W
LayerCount: 2
Fore
SplineSet
420.091796875 306.043945312 m 1
 492 -196 l 1
 330.0703125 -198.580078125 l 1
 307.141601562 150.622070312 l 1
 214.34765625 119.022460938 l 1
 189.865234375 -190.439453125 l 1
 30.923828125 -198.177734375 l 1
 72.1640625 152.525390625 l 1
 20.6064453125 170.56640625 l 1
 -0 285.422851562 l 1
 69.5830078125 290.58203125 l 1
 420.091796875 306.043945312 l 1
EndSplineSet
Validated: 524289
EndChar

StartChar: o
Encoding: 111 111 40
Width: 520
VWidth: 0
Flags: W
LayerCount: 2
Fore
SplineSet
290.939453125 159.586914062 m 1
 134.305664062 116.682617188 l 1
 147.188476562 -63.5458984375 l 1
 280.212890625 -50.6767578125 l 1
 290.939453125 159.586914062 l 1
474.212890625 336.600585938 m 1
 389.1640625 -194.315429688 l 1
 18.0400390625 -198.177734375 l 1
 -0 267.015625 l 1
 474.212890625 336.600585938 l 1
EndSplineSet
Validated: 524289
EndChar

StartChar: p
Encoding: 112 112 41
Width: 550
VWidth: 0
Flags: W
LayerCount: 2
Fore
SplineSet
297 109 m 1
 161.424804688 83.1787109375 l 1
 147.111328125 -120.54296875 l 1
 339.176757812 -70.5068359375 l 1
 297 109 l 1
460.899414062 261.384765625 m 1
 502.985351562 -200 l 1
 159.821289062 -254.672851562 l 1
 200.174804688 -502.512695312 l 1
 -10.9345703125 -509.814453125 l 1
 13 195 l 1
 460.899414062 261.384765625 l 1
EndSplineSet
Validated: 524289
EndChar

StartChar: q
Encoding: 113 113 42
Width: 550
VWidth: 0
Flags: W
LayerCount: 2
Fore
SplineSet
337 129 m 1
 151.556640625 91.4091796875 l 1
 168.981445312 -100.219726562 l 1
 325.06640625 -71.26953125 l 1
 337 129 l 1
487.993164062 282.842773438 m 1
 507.334960938 -507.991210938 l 1
 323.020507812 -500.704101562 l 1
 363.374023438 -252.850585938 l 1
 8.880859375 -198.177734375 l 1
 2.5185546875 174.624023438 l 1
 487.993164062 282.842773438 l 1
EndSplineSet
Validated: 524289
EndChar

StartChar: r
Encoding: 114 114 43
Width: 439
VWidth: 0
Flags: W
LayerCount: 2
Fore
SplineSet
396.612304688 393.711914062 m 1
 331 206 l 1
 137.928710938 195.62109375 l 1
 213.22265625 -195.603515625 l 1
 36.447265625 -197.422851562 l 1
 -0 325.69921875 l 1
 396.612304688 393.711914062 l 1
EndSplineSet
Validated: 524289
EndChar

StartChar: s
Encoding: 115 115 44
Width: 435
VWidth: 0
Flags: W
HStem: 220 137.353<208.817 379.068>
VStem: 14.3984 134.868<133.831 228.955>
LayerCount: 2
Fore
SplineSet
379.068359375 357.352539062 m 1
 415 220 l 1
 151.23046875 228.955078125 l 1
 149.266601562 133.831054688 l 1
 408.985351562 98.044921875 l 1
 369 -200 l 1
 -0 -200 l 1
 2.5634765625 -61.505859375 l 1
 260.932617188 -79.5322265625 l 1
 262.377929688 -8.26953125 l 1
 14.3984375 29.7421875 l 1
 6.169921875 342.262695312 l 1
 379.068359375 357.352539062 l 1
EndSplineSet
Validated: 524289
EndChar

StartChar: t
Encoding: 116 116 45
Width: 332
VWidth: 0
Flags: W
VStem: -0 297.058
LayerCount: 2
Fore
SplineSet
216.875 405.0546875 m 1
 205.938476562 301.176757812 l 1
 297.057617188 319.401367188 l 1
 289.76953125 160.850585938 l 1
 202.302734375 171.873046875 l 1
 260.624023438 -200 l 1
 103.892578125 -200 l 1
 111.1796875 162.668945312 l 1
 3.6494140625 146.262695312 l 1
 -0 299.358398438 l 1
 91.138671875 286.588867188 l 1
 74.732421875 392.298828125 l 1
 216.875 405.0546875 l 1
EndSplineSet
Validated: 524289
EndChar

StartChar: u
Encoding: 117 117 46
Width: 500
VWidth: 0
Flags: W
HStem: -200 104.963<395.653 439.964> -198.281 130.645<141.749 257.942>
VStem: 2.57715 149.534<163.352 263.718>
LayerCount: 2
Fore
SplineSet
152.111328125 310.619140625 m 1x60
 141.749023438 -67.63671875 l 1x60
 257.942382812 -65.6923828125 l 1
 303.783203125 310.436523438 l 1
 440.9921875 271.014648438 l 1
 376.170898438 -85.91796875 l 1
 460.004882812 -95.037109375 l 1
 439.963867188 -200 l 1xa0
 35.3916015625 -198.28125 l 1
 2.5771484375 261.415039062 l 1
 152.111328125 310.619140625 l 1x60
EndSplineSet
Validated: 524289
EndChar

StartChar: v
Encoding: 118 118 47
Width: 572
VWidth: 0
Flags: W
LayerCount: 2
Fore
SplineSet
304.006835938 318.02734375 m 1
 528.241210938 315.462890625 l 1
 257.724609375 -200 l 1
 139.174804688 -200 l 1
 -0 292.262695312 l 1
 146.907226562 302.56640625 l 1
 207 22 l 1
 230.200195312 40.0517578125 l 1
 304.006835938 318.02734375 l 1
EndSplineSet
Validated: 524289
EndChar

StartChar: w
Encoding: 119 119 48
Width: 732
VWidth: 0
Flags: W
LayerCount: 2
Fore
SplineSet
538.586914062 317.188476562 m 1
 690.202148438 315.216796875 l 1
 495.978515625 -199.095703125 l 1
 384.936523438 -197.969726562 l 1
 313.770507812 -93.091796875 l 1
 242.740234375 -198.758789062 l 1
 141.665039062 -200 l 1
 -0 316.568359375 l 1
 180.766601562 312.438476562 l 1
 213.141601562 -0.1904296875 l 1
 320.955078125 178.189453125 l 1
 413.736328125 -4.37890625 l 1
 538.586914062 317.188476562 l 1
EndSplineSet
Validated: 524289
EndChar

StartChar: x
Encoding: 120 120 49
Width: 514
VWidth: 0
Flags: W
LayerCount: 2
Fore
SplineSet
349.375976562 322.423828125 m 1
 490 322 l 1
 329 32 l 1
 468.916015625 -199.284179688 l 1
 294.494140625 -199.392578125 l 1
 233 -46 l 1
 171.192382812 -199.604492188 l 1
 -0 -200 l 1
 139 38 l 1
 -2.8173828125 320.817382812 l 1
 133.8125 320.817382812 l 1
 237 136 l 1
 349.375976562 322.423828125 l 1
EndSplineSet
Validated: 524289
EndChar

StartChar: y
Encoding: 121 121 50
Width: 493
VWidth: 0
Flags: W
VStem: 136.592 149.488<-198.46 -11.5925> 145 134<-160.867 16>
LayerCount: 2
Fore
SplineSet
438 349 m 1x40
 279 16 l 1x40
 286.080078125 -198.459960938 l 1
 136.591796875 -198.459960938 l 1x80
 145 26 l 1
 -0 346.134765625 l 1
 129 382 l 1
 219 166 l 1
 300 379 l 1
 438 349 l 1x40
EndSplineSet
Validated: 524289
EndChar

StartChar: z
Encoding: 122 122 51
Width: 505
VWidth: 0
Flags: W
HStem: -199.913 132.109<279.347 388.978>
LayerCount: 2
Back
SplineSet
-1.08984375 336.762695312 m 1
 463.822265625 331.688476562 l 1
 221.365234375 -78.642578125 l 1
 385.07421875 -67.8037109375 l 1
 458.749023438 -199.913085938 l 1
 1.4462890625 -199.913085938 l 1
 240.490234375 215.633789062 l 1
 56.0615234375 193.22265625 l 1
 -1.08984375 336.762695312 l 1
EndSplineSet
Fore
SplineSet
-1.08984375 336.762695312 m 1
 463.822265625 331.688476562 l 1
 221.365234375 -78.642578125 l 1
 385.07421875 -67.8037109375 l 1
 458.749023438 -199.913085938 l 1
 1.4462890625 -199.913085938 l 1
 240.490234375 215.633789062 l 1
 56.0615234375 193.22265625 l 1
 -1.08984375 336.762695312 l 1
EndSplineSet
Validated: 524289
EndChar

StartChar: zero
Encoding: 48 48 52
Width: 908
VWidth: 0
Flags: HW
LayerCount: 2
Fore
SplineSet
851.704101562 783.028320312 m 1
 679.03125 -198.916015625 l 1
 96.556640625 -198.916015625 l 1
 1.1923828125 775.3046875 l 1
 851.704101562 783.028320312 l 1
668.713867188 641.278320312 m 1
 336.25 628.396484375 l 1
 556.331054688 130.201171875 l 1
 668.713867188 641.278320312 l 1
190.590820312 521.547851562 m 1
 253.783203125 -49.4423828125 l 1
 460.5078125 -49.4423828125 l 1
 190.590820312 521.547851562 l 1
EndSplineSet
EndChar

StartChar: one
Encoding: 49 49 53
Width: 552
VWidth: 0
Flags: HW
LayerCount: 2
Fore
SplineSet
-0.0009765625 502.315429688 m 1
 226.802734375 798.705078125 l 1
 494.842773438 798.705078125 l 1
 317.008789062 -196.133789062 l 1
 182.98828125 -198.711914062 l 1
 239.689453125 566.748046875 l 1
 -0.0009765625 502.315429688 l 1
EndSplineSet
EndChar

StartChar: two
Encoding: 50 50 54
Width: 752
VWidth: 0
Flags: HW
LayerCount: 2
Fore
SplineSet
18.5185546875 474.950195312 m 1
 262.723632812 795.697265625 l 1
 649.079101562 784.763671875 l 1
 711.041992188 402.052734375 l 1
 251.7890625 -57.19921875 l 1
 652.725585938 95.884765625 l 1
 627.209960938 -188.4140625 l 1
 0.2939453125 -195.704101562 l 1
 36.744140625 8.408203125 l 1
 465.012695312 402.052734375 l 1
 459.548828125 580.651367188 l 1
 315.57421875 602.520507812 l 1
 104.172851562 274.483398438 l 1
 18.5185546875 474.950195312 l 1
EndSplineSet
EndChar

StartChar: three
Encoding: 51 51 55
Width: 792
VWidth: 0
Flags: HW
LayerCount: 2
Fore
SplineSet
46.7412109375 624.572265625 m 1
 161.973632812 771.305664062 l 1
 618.982421875 791.297851562 l 1
 739.263671875 560.788085938 l 1
 609.525390625 270.159179688 l 1
 688.235351562 -4.1650390625 l 1
 496 -199 l 5
 97.7666015625 -190.052734375 l 1
 3 12.732421875 l 1
 101.413085938 171.336914062 l 1
 215.28515625 -12.5224609375 l 1
 378.420898438 -7.810546875 l 1
 465.684570312 169.903320312 l 1
 423.705078125 193.959960938 l 1
 233.458007812 201.2734375 l 1
 297.919921875 372.622070312 l 1
 431.74609375 366.661132812 l 1
 486.227539062 400.672851562 l 1
 465.899414062 582.657226562 l 1
 301.879882812 602.315429688 l 1
 109.325195312 438.684570312 l 1
 46.7412109375 624.572265625 l 1
EndSplineSet
EndChar

StartChar: four
Encoding: 52 52 56
Width: 728
VWidth: 0
Flags: HW
LayerCount: 2
Fore
SplineSet
88.13671875 682.39453125 m 1
 276.497070312 606.111328125 l 1
 190 348 l 1
 368.426757812 347.509765625 l 1
 406.491210938 762.009765625 l 1
 620.287109375 804.497070312 l 1
 508.182617188 337.291992188 l 1
 616.643554688 359.016601562 l 1
 685.893554688 175.629882812 l 1
 485.426757812 188.958984375 l 1
 462.59765625 -194.194335938 l 1
 241.22265625 -194.194335938 l 1
 339.6328125 185.313476562 l 1
 4.8232421875 196.797851562 l 1
 88.13671875 682.39453125 l 1
EndSplineSet
EndChar

StartChar: five
Encoding: 53 53 57
Width: 854
VWidth: 0
Flags: HW
LayerCount: 2
Fore
SplineSet
686.044921875 793.5625 m 1
 769.876953125 531.1328125 l 1
 230.436523438 640.478515625 l 1
 314.270507812 414.497070312 l 1
 678.754882812 425.431640625 l 1
 813.615234375 104.684570312 l 1
 693.3359375 -197.838867188 l 1
 128.3828125 -186.904296875 l 1
 99.22265625 75.525390625 l 1
 507.447265625 -53.8671875 l 1
 620.438476562 95.572265625 l 1
 543.89453125 232.254882812 l 1
 99.22265625 312.44140625 l 1
 0.8125 782.627929688 l 1
 686.044921875 793.5625 l 1
EndSplineSet
EndChar

StartChar: six
Encoding: 54 54 58
Width: 829
VWidth: 0
Flags: HW
LayerCount: 2
Fore
SplineSet
543.08203125 789.580078125 m 1
 236.91796875 315.74609375 l 1
 511.454101562 429.814453125 l 1
 779.999023438 180.888671875 l 1
 566.775390625 -201.823242188 l 1
 169.475585938 -196.353515625 l 1
 0.0009765625 228.275390625 l 1
 255.127929688 753.130859375 l 1
 543.08203125 789.580078125 l 1
389.379882812 262.821289062 m 1
 237.3125 74.685546875 l 1
 379.0625 -85.119140625 l 1
 554.329101562 103.030273438 l 1
 389.379882812 262.821289062 l 1
EndSplineSet
EndChar

StartChar: seven
Encoding: 55 55 59
Width: 918
VWidth: 0
Flags: HW
LayerCount: 2
Fore
SplineSet
-1.3583984375 798.716796875 m 1
 880.698242188 795.06640625 l 1
 695 383 l 1
 825 389 l 1
 871 211 l 1
 650.30078125 221.551757812 l 1
 501.63671875 -189.03515625 l 1
 184.536132812 -196.3359375 l 1
 439.817382812 223.154296875 l 1
 265 241 l 1
 401 385 l 1
 539 391 l 1
 654.71875 623.759765625 l 1
 140.80078125 576.374023438 l 1
 -1.3583984375 798.716796875 l 1
EndSplineSet
EndChar

StartChar: eight
Encoding: 56 56 60
Width: 820
VWidth: 0
Flags: HW
LayerCount: 2
Fore
SplineSet
1.1015625 799.26171875 m 1
 770.161132812 795.611328125 l 1
 671.751953125 396.451171875 l 1
 525.958007812 272.53125 l 1
 653.528320312 144.9609375 l 1
 722.775390625 -199.427734375 l 1
 12.025390625 -195.791015625 l 1
 95.8603515625 152.247070312 l 1
 216.143554688 279.818359375 l 1
 77.6357421875 400.1015625 l 1
 1.1015625 799.26171875 l 1
253.127929688 648.787109375 m 1
 308.505859375 415.197265625 l 1
 448.564453125 416.705078125 l 1
 522.546875 643.642578125 l 1
 253.127929688 648.787109375 l 1
315.171875 153.953125 m 1
 240.119140625 -62.541015625 l 1
 497.979492188 -62.541015625 l 1
 436.119140625 151.373046875 l 1
 315.171875 153.953125 l 1
EndSplineSet
EndChar

StartChar: nine
Encoding: 57 57 61
Width: 792
VWidth: 0
Flags: HWO
LayerCount: 2
Fore
SplineSet
741.491210938 804.135742188 m 1
 644.3046875 -199.852539062 l 1
 442.9765625 -199.852539062 l 1
 529.131835938 236.684570312 l 1
 177.607421875 174.599609375 l 1
 0.3671875 799.639648438 l 1
 741.491210938 804.135742188 l 1
528.634765625 674.747070312 m 1
 218.819335938 625.54296875 l 1
 308.112304688 372.223632812 l 1
 514.045898438 428.711914062 l 1
 528.634765625 674.747070312 l 1
EndSplineSet
EndChar
